<svg xmlns="http://www.w3.org/2000/svg" width="1600" height="256" viewBox="0 0 1600 256" fill="none">
  <defs>
    <linearGradient id="bg" x1="0" y1="0" x2="1600" y2="256" gradientUnits="userSpaceOnUse">
      <stop offset="0" stop-color="#f6faf7"/>
      <stop offset="1" stop-color="#eef4ef"/>
    </linearGradient>
    <linearGradient id="card" x1="0" y1="0" x2="0" y2="1">
      <stop offset="0" stop-color="#ffffff" stop-opacity="0.95"/>
      <stop offset="1" stop-color="#f4f8f4" stop-opacity="0.95"/>
    </linearGradient>
  </defs>

  <rect width="1600" height="256" fill="url(#bg)"/>

  <rect x="88" y="40" width="330" height="176" rx="18" fill="url(#card)" stroke="#d5e2d8"/>
  <circle cx="146" cy="102" r="24" fill="#8fb39a"/>
  <rect x="184" y="84" width="186" height="16" rx="8" fill="#cad9ce"/>
  <rect x="184" y="112" width="138" height="12" rx="6" fill="#dbe6de"/>
  <rect x="118" y="148" width="268" height="10" rx="5" fill="#dbe6de"/>
  <rect x="118" y="168" width="236" height="10" rx="5" fill="#dbe6de"/>

  <rect x="460" y="52" width="290" height="152" rx="16" fill="url(#card)" stroke="#d5e2d8"/>
  <circle cx="520" cy="106" r="20" fill="#7ba58a"/>
  <rect x="554" y="92" width="162" height="12" rx="6" fill="#c7d7cb"/>
  <rect x="554" y="114" width="132" height="10" rx="5" fill="#d8e3dc"/>
  <rect x="492" y="144" width="222" height="10" rx="5" fill="#d8e3dc"/>
  <rect x="492" y="164" width="190" height="10" rx="5" fill="#d8e3dc"/>

  <rect x="792" y="36" width="720" height="184" rx="20" fill="#ffffff" fill-opacity="0.62" stroke="#d6e1d8"/>
  <circle cx="910" cy="102" r="34" fill="#6f9b7e"/>
  <circle cx="1008" cy="120" r="30" fill="#8cb39a"/>
  <circle cx="1090" cy="98" r="26" fill="#a8c4b0"/>
  <circle cx="1160" cy="126" r="22" fill="#b9cfbf"/>
  <rect x="1224" y="86" width="226" height="14" rx="7" fill="#cad8cc"/>
  <rect x="1224" y="114" width="182" height="12" rx="6" fill="#d9e4db"/>
  <rect x="1224" y="138" width="204" height="12" rx="6" fill="#d9e4db"/>
  <rect x="1224" y="162" width="148" height="12" rx="6" fill="#d9e4db"/>
</svg>
